<svg xmlns="http://www.w3.org/2000/svg" viewBox="0 0 32 32" role="img" aria-label="Pranav Cotton Company">
  <defs>
    <linearGradient id="bg" x1="0%" y1="0%" x2="100%" y2="100%">
      <stop offset="0%" stop-color="#6ee7b7"/>
      <stop offset="50%" stop-color="#5eead4"/>
      <stop offset="100%" stop-color="#22d3ee"/>
    </linearGradient>
  </defs>
  <rect width="32" height="32" rx="6" fill="url(#bg)"/>
  <!-- Stem -->
  <path fill="none" stroke="#14532d" stroke-width="1.6" stroke-linecap="round" d="M16 27V15"/>
  <path fill="none" stroke="#14532d" stroke-width="1.4" stroke-linecap="round" d="M16 17.5 10.5 13.5M16 17.5 21.5 13.5"/>
  <!-- Leaves -->
  <path fill="#16a34a" d="M16 24c-3.2 0-5.2-1.4-5.8-2.8-.4-.9.1-1.8 1.2-1.8 1.4 0 2.4.8 4.6.8s3.2-.8 4.6-.8c1.1 0 1.6.9 1.2 1.8-.6 1.4-2.6 2.8-5.8 2.8z"/>
  <!-- Cotton bolls -->
  <circle cx="16" cy="9.5" r="4.8" fill="#fff"/>
  <circle cx="10" cy="13" r="3.8" fill="#fff"/>
  <circle cx="22" cy="13" r="3.8" fill="#fff"/>
  <!-- Boll texture -->
  <circle cx="14.2" cy="8.2" r="1.1" fill="#e2e8f0" opacity="0.7"/>
  <circle cx="17.5" cy="10.2" r="0.9" fill="#e2e8f0" opacity="0.7"/>
  <circle cx="9" cy="12.2" r="0.8" fill="#e2e8f0" opacity="0.7"/>
  <circle cx="21.2" cy="12.5" r="0.8" fill="#e2e8f0" opacity="0.7"/>
</svg>
